# xmcd
#
# Track frame offsets:
#	200
#	12220
#	23960
#	35760
#	48765
#	64708
#	76188
#	91295
#	108893
#	118848
#	132408
#	146470
#	160643
#	169178
#	189373
#	199793
#	211950
#	221018
#	233943
#	248628
#	264893
#	275580
#	289050
#	312748
#	324728
#
# Disc length: 4484 seconds
#
# Revision: 2
# Processed by: cddbd v1.4PL0 Copyright (c) Steve Scherf et al.
# Submitted via: audiograbber 1.82.02
#
DISCID=67118219
DTITLE=Various Artist - 25 Super Soul Hits - Disk 3
DYEAR=1992
DGENRE=Soul
TTITLE0=James Brown - It's A Man's, Man's World
TTITLE1=Wilson Pickett - If You Need Me
TTITLE2=Otis Redding - Can't Turn You Loose
TTITLE3=Lee Dorsey - Working In The Coalmine
TTITLE4=Fontella Bass - The Soul Of A Man
TTITLE5=Ike and Tina Turner - Poor Fool
TTITLE6=Gladys Night and The Pips - Guess Who
TTITLE7=Aretha Franklin - Call Me
TTITLE8=The Shangri-las - Shout
TTITLE9=Sam and Dave - Don't Pull Your Love Out On Me Baby
TTITLE10=Otis Redding - Tell The Truth
TTITLE11=Commodores - Rise Up
TTITLE12=The Isley Brothers - I'm Laughing To Keep From Crying
TTITLE13=Lou Rawls - Your Good Is About To End
TTITLE14=Wilson Pickett - Give Your Lovin' Right Now
TTITLE15=Aretha Franklin - You Make Me Feel (Like A Natural Woman)
TTITLE16=Al Jarreau - Ain't No Sunshine
TTITLE17=Solomon Burke - Sweeter Than Sweetness
TTITLE18=Percy Sledge - Warm And Tender Love
TTITLE19=Sly and The Family Stone - Babies Makin' Babies
TTITLE20=Sam and Dave - Can't You Find Another Way Of Doing It Baby?
TTITLE21=Otis Redding - Down In The Valley
TTITLE22=James Brown - Today
TTITLE23=Wilson Pickett - Peace Breaker
TTITLE24=The Drifters - Bring It On Home To Me
EXTD=
EXTT0=
EXTT1=
EXTT2=
EXTT3=
EXTT4=
EXTT5=
EXTT6=
EXTT7=
EXTT8=
EXTT9=
EXTT10=
EXTT11=
EXTT12=
EXTT13=
EXTT14=
EXTT15=
EXTT16=
EXTT17=
EXTT18=
EXTT19=
EXTT20=
EXTT21=
EXTT22=
EXTT23=
EXTT24=
PLAYORDER=
